<svg id="Layer_1" data-name="Layer 1" xmlns="http://www.w3.org/2000/svg" viewBox="0 0 236.84 92.86"><defs><style>.cls-1{fill:#7a3a96;fill-rule:evenodd;}</style></defs><path class="cls-1" d="M75.41,95.16V70.58H62.29V92.51c0,9-1.49,11.59-6.44,12.79h0v8.57C65.57,113.72,75.41,111.41,75.41,95.16Z" transform="translate(-55.85 -21.01)"/><polygon class="cls-1" points="23.92 85.21 37.04 85.21 37.04 73.43 45.41 73.43 45.41 85.21 58.53 85.21 58.53 49.62 45.41 49.62 45.41 60.92 37.04 60.92 37.04 49.62 23.92 49.62 23.92 85.21"/><polygon class="cls-1" points="97.08 85.21 110.2 85.21 110.2 74.34 117.03 85.21 134.9 85.21 120.42 66.21 132.45 49.62 116.79 49.62 110.2 60.2 110.2 49.62 97.08 49.62 97.08 85.21"/><path class="cls-1" d="M260.41,81.3c0,4.81,3.36,9,10.91,11.88h0c4.33,1.69,5.49,2.07,5.49,3.18h0c0,.82-1.11,1.39-2.65,1.39h0c-1.92,0-6.79-1.73-10.73-5h0l-5,6.35c4.48,4.91,10.2,8.27,17.8,8.27h0c10.68,0,16.16-6.11,16.45-11.49h0c.29-4.52-2.41-9.62-12.84-13.37h0c-3.61-1.35-4-1.73-4-2.65h0c0-.62.81-.72,1.63-.72h0c2.12,0,5.87,1.11,10,3.7h0L292,75.92c-4.57-3.42-10-6.4-16.63-6.4-9.33,0-14.91,5.72-14.91,11.78Z" transform="translate(-55.85 -21.01)"/><polygon class="cls-1" points="60.15 85.21 71.29 85.21 75.87 75.58 80.34 85.21 95.64 85.21 77.89 47.22 60.15 85.21"/><path class="cls-1" d="M127.88,59.07a5.86,5.86,0,0,0,5.86,5.87h0a5.87,5.87,0,1,0-5.86-5.87Z" transform="translate(-55.85 -21.01)"/><polygon class="cls-1" points="169.53 85.21 180.68 85.21 185.26 75.58 189.73 85.21 205.02 85.21 187.28 47.22 169.53 85.21"/><path class="cls-1" d="M237.26,59.07a5.87,5.87,0,0,0,5.87,5.87h0A5.86,5.86,0,0,0,249,59.07h0a5.87,5.87,0,0,0-11.73,0Z" transform="translate(-55.85 -21.01)"/><polygon class="cls-1" points="134.6 85.21 145.74 85.21 150.32 75.58 154.79 85.21 170.09 85.21 152.34 47.22 134.6 85.21"/><path class="cls-1" d="M184.56,38.42A17.41,17.41,0,0,0,196.3,54.88h0l-3.62,4.57,10,5.84,11-13.41-3.58-2.73,8.34-10.59-8.28-10.62,3.33-2.57-.27-.23h0A17.34,17.34,0,0,0,202,21h0a17.4,17.4,0,0,0-17.41,17.41Zm8.82,0A8.59,8.59,0,0,1,202,29.83h0a8.58,8.58,0,0,1,6.52,3h0a8.58,8.58,0,0,1,2.07,5.59h0a8.76,8.76,0,0,1-.23,2h0A8.6,8.6,0,0,1,202,47h0a8.58,8.58,0,0,1-8.59-8.59Z" transform="translate(-55.85 -21.01)"/><polygon class="cls-1" points="171.57 9.26 165.18 1.04 157.15 7.3 165.13 17.44 157.15 27.68 165.09 34 171.57 25.85 178.05 34 185.99 27.68 178.01 17.44 185.99 7.3 177.96 1.04 171.57 9.26"/></svg>